<svg width="13" height="14" viewBox="0 0 13 14" fill="none" xmlns="http://www.w3.org/2000/svg">
<path d="M12.2364 7.141C12.5021 7.49202 12.6491 7.92209 12.6491 8.36955C12.6491 9.07948 12.2523 9.75147 11.6135 10.1262C11.449 10.2227 11.2618 10.2734 11.0711 10.2732H7.27957L7.37444 12.2165C7.39657 12.6861 7.23055 13.1319 6.908 13.4719C6.74971 13.6394 6.55873 13.7728 6.34688 13.8636C6.13503 13.9544 5.9068 14.0008 5.67629 14C4.8541 14 4.12678 13.4466 3.90858 12.6544L2.55038 7.73709H0.505965C0.226103 7.73709 0 7.51099 0 7.23113V1.47578C0 1.19592 0.226103 0.969817 0.505965 0.969817H10.0134C10.1588 0.969817 10.3011 0.998278 10.4324 1.0552C11.185 1.37617 11.6704 2.1114 11.6704 2.92727C11.6704 3.12649 11.6419 3.32255 11.585 3.51229C11.8506 3.8633 11.9977 4.29337 11.9977 4.74084C11.9977 4.94006 11.9692 5.13612 11.9123 5.32586C12.1779 5.67687 12.325 6.10694 12.325 6.5544C12.3218 6.75363 12.2934 6.95127 12.2364 7.141ZM1.13842 2.10824V6.59867H2.41914V2.10824H1.13842ZM11.2008 7.68966L10.8545 7.38924L11.0743 6.98763C11.1467 6.85534 11.1843 6.70679 11.1834 6.55598C11.1834 6.29509 11.0696 6.04686 10.8735 5.87609L10.5272 5.57568L10.747 5.17407C10.8194 5.04177 10.857 4.89323 10.8561 4.74242C10.8561 4.48153 10.7423 4.23329 10.5462 4.06253L10.1999 3.76211L10.4197 3.3605C10.4921 3.22821 10.5297 3.07966 10.5288 2.92885C10.5288 2.57467 10.3201 2.25528 9.99755 2.10982H3.43107V6.64927L5.00431 12.3493C5.04488 12.4954 5.13196 12.6243 5.25236 12.7164C5.37277 12.8086 5.51993 12.859 5.67155 12.86C5.79172 12.86 5.9103 12.8252 6.00517 12.7541C6.1617 12.637 6.2455 12.46 6.23602 12.2718L6.08423 9.13482H11.0553C11.3368 8.96248 11.5107 8.67155 11.5107 8.36955C11.5107 8.10866 11.3969 7.862 11.2008 7.68966Z" fill="#121212"/>
</svg>
