<svg width="45" height="33" viewBox="0 0 45 33" fill="none" xmlns="http://www.w3.org/2000/svg">
<path d="M0.473684 16.5C0.473685 7.65104 7.68212 0.47368 16.5789 0.473681C25.4758 0.473682 32.6842 7.65104 32.6842 16.5C32.6842 25.349 25.4758 32.5263 16.5789 32.5263C7.68212 32.5263 0.473683 25.349 0.473684 16.5Z" stroke="#121212" stroke-width="0.947368"/>
<rect x="35.5263" y="21.2142" width="7.10526" height="9.42857" transform="rotate(-180 35.5263 21.2142)" fill="white"/>
<path d="M12.1732 16.5L21.1711 9.67952L22.4079 10.6171L15.9662 15.5L15.4921 15.8594L16.087 15.8594L44.8 15.8594L44.8 17.1404L16.0868 17.1404L15.4919 17.1404L15.966 17.4998L22.4079 22.3829L21.171 23.3204L12.1732 16.5Z" fill="#121212" stroke="white" stroke-width="0.4"/>
</svg>
