<svg width="13" height="14" viewBox="0 0 13 14" fill="none" xmlns="http://www.w3.org/2000/svg">
<path d="M12.2373 6.85947C12.5029 6.50844 12.65 6.07834 12.65 5.63084C12.65 4.92086 12.2531 4.24883 11.6143 3.87407C11.4498 3.77761 11.2626 3.72684 11.0719 3.72702H7.28008L7.37495 1.78366C7.39709 1.31403 7.23106 0.868118 6.90848 0.528149C6.75018 0.360581 6.55919 0.227258 6.34732 0.136419C6.13545 0.0455793 5.90721 -0.00084599 5.67669 1.16699e-05C4.85444 1.16699e-05 4.12706 0.553449 3.90885 1.34566L2.55056 6.26334H0.506C0.226119 6.26334 0 6.48946 0 6.76934V12.5251C0 12.805 0.226119 13.0311 0.506 13.0311H10.0141C10.1595 13.0311 10.3018 13.0026 10.4331 12.9457C11.1858 12.6247 11.6712 11.8894 11.6712 11.0735C11.6712 10.8743 11.6427 10.6782 11.5858 10.4884C11.8515 10.1374 11.9985 9.7073 11.9985 9.25981C11.9985 9.06057 11.9701 8.8645 11.9131 8.67475C12.1788 8.32371 12.3258 7.89361 12.3258 7.44612C12.3227 7.24688 12.2942 7.04922 12.2373 6.85947ZM1.1385 11.8926V7.40184H2.41931V11.8926H1.1385ZM11.2016 6.31078L10.8553 6.61122L11.0751 7.01286C11.1475 7.14516 11.185 7.29372 11.1842 7.44454C11.1842 7.70544 11.0703 7.9537 10.8743 8.12447L10.528 8.42491L10.7478 8.82655C10.8202 8.95885 10.8577 9.10741 10.8569 9.25823C10.8569 9.51914 10.743 9.76739 10.5469 9.93817L10.2006 10.2386L10.4204 10.6402C10.4928 10.7725 10.5304 10.9211 10.5295 11.0719C10.5295 11.4261 10.3208 11.7455 9.99824 11.891H3.43131V7.35124L5.00466 1.65084C5.04523 1.50473 5.13232 1.37583 5.25273 1.28366C5.37314 1.1915 5.52031 1.1411 5.67194 1.14009C5.79212 1.14009 5.91071 1.17488 6.00559 1.24604C6.16213 1.36305 6.24594 1.54015 6.23645 1.72832L6.08465 4.86552H11.0561C11.3376 5.03787 11.5115 5.32882 11.5115 5.63084C11.5115 5.89175 11.3976 6.13842 11.2016 6.31078Z" fill="#121212"/>
</svg>
