<svg width="16" height="18" viewBox="0 0 16 18" fill="none" xmlns="http://www.w3.org/2000/svg">
<path fill-rule="evenodd" clip-rule="evenodd" d="M0.708984 7.6806C0.708984 3.68572 3.97976 0.458374 8.00065 0.458374C12.0215 0.458374 15.2923 3.68572 15.2923 7.6806C15.2923 10.1652 13.8434 12.6174 12.3078 14.4024C11.5307 15.3058 10.7059 16.0684 9.97836 16.6107C9.61519 16.8815 9.26612 17.1049 8.95104 17.2636C8.65567 17.4123 8.31835 17.5417 8.00065 17.5417C7.68295 17.5417 7.34564 17.4123 7.05026 17.2636C6.73518 17.1049 6.38612 16.8815 6.02294 16.6107C5.29541 16.0684 4.47061 15.3058 3.69352 14.4024C2.15792 12.6174 0.708984 10.1652 0.708984 7.6806ZM8.00033 9.83335C6.61961 9.83335 5.50033 8.71407 5.50033 7.33335C5.50033 5.95264 6.61961 4.83335 8.00033 4.83335C9.38104 4.83335 10.5003 5.95264 10.5003 7.33335C10.5003 8.71407 9.38104 9.83335 8.00033 9.83335Z" fill="#FFAF06"/>
</svg>
