<svg width="29" height="29" viewBox="0 0 29 29" fill="none" xmlns="http://www.w3.org/2000/svg">
<path d="M13.4717 2.91684C13.9381 2.14185 15.0617 2.14186 15.5281 2.91684L18.6129 8.04267C18.7804 8.32108 19.0537 8.51965 19.3703 8.59296L25.1985 9.94279C26.0797 10.1469 26.4268 11.2154 25.8339 11.8985L21.9122 16.4162C21.6992 16.6616 21.5948 16.9829 21.6229 17.3066L22.1402 23.2667C22.2184 24.1678 21.3094 24.8282 20.4765 24.4754L14.968 22.1417C14.6688 22.0149 14.331 22.0149 14.0318 22.1417L8.52329 24.4754C7.69045 24.8282 6.78147 24.1678 6.85968 23.2667L7.37693 17.3066C7.40503 16.9829 7.30064 16.6616 7.08763 16.4162L3.16592 11.8985C2.57299 11.2154 2.92018 10.1469 3.80136 9.94279L9.62956 8.59296C9.94613 8.51965 10.2194 8.32108 10.387 8.04267L13.4717 2.91684Z" fill="#FFC13F" stroke="#FFC13F" stroke-width="1.5"/>
</svg>
